<?xml version="1.0" standalone="no"?>
<!DOCTYPE svg PUBLIC "-//W3C//DTD SVG 20010904//EN"
 "http://www.w3.org/TR/2001/REC-SVG-20010904/DTD/svg10.dtd">
<svg version="1.0" xmlns="http://www.w3.org/2000/svg"
 width="200.000000pt" height="200.000000pt" viewBox="0 0 200.000000 200.000000"
 preserveAspectRatio="xMidYMid meet">
<metadata>
Created by potrace 1.11, written by Peter Selinger 2001-2013
</metadata>
<g transform="translate(0.000000,200.000000) scale(0.100000,-0.100000)"
fill="#000000" stroke="none">
<path d="M0 1875 c0 -69 3 -125 6 -125 4 0 24 5 45 11 24 8 36 16 32 25 -3 8
10 17 39 24 23 7 54 20 68 29 38 26 98 43 144 43 24 -1 64 9 96 25 40 18 81
27 150 33 52 4 109 13 125 21 37 16 354 17 400 1 24 -8 3 -10 -101 -11 -104
-1 -151 -6 -226 -25 -182 -46 -337 -135 -460 -265 -121 -126 -195 -257 -240
-424 -33 -121 -33 -347 0 -467 94 -344 353 -598 700 -686 166 -42 414 -28 556
31 21 9 40 14 43 12 6 -7 -96 -44 -187 -69 -106 -30 -324 -29 -470 1 -58 11
-122 21 -142 21 -21 0 -40 6 -45 14 -13 23 -155 116 -178 116 -11 0 -25 4 -30
9 -6 5 -34 16 -62 26 -60 19 -73 33 -50 50 25 18 21 59 -12 118 -41 72 -131
272 -147 329 -8 25 -23 57 -34 70 -19 23 -19 21 -20 -394 l0 -418 1000 0 1000
0 0 1000 0 1000 -1000 0 -1000 0 0 -125z m1162 30 c244 -43 478 -193 595 -384
27 -43 30 -53 17 -58 -9 -3 -22 3 -32 18 -120 171 -312 317 -487 368 -100 29
-246 44 -336 33 -51 -6 -76 -6 -81 1 -9 14 1 30 16 24 6 -2 20 -1 31 4 34 13
185 10 277 -6z m-357 -15 c3 -5 -1 -10 -9 -10 -9 0 -16 5 -16 10 0 6 4 10 9
10 6 0 13 -4 16 -10z m205 -166 c0 -32 -4 -44 -12 -42 -14 5 -23 51 -14 74 11
30 26 12 26 -32z m-191 -34 c0 -10 -3 -8 -9 5 -12 27 -12 43 0 25 5 -8 9 -22
9 -30z m-164 -60 c10 -20 12 -31 4 -35 -6 -4 -11 -5 -13 -4 -25 39 -36 61 -31
69 9 14 23 4 40 -30z m422 -202 c-3 -8 -6 -5 -6 6 -1 11 2 17 5 13 3 -3 4 -12
1 -19z m-10 -70 c-3 -7 -5 -2 -5 12 0 14 2 19 5 13 2 -7 2 -19 0 -25z m193
-267 c-8 -5 -31 -11 -50 -14 -35 -6 -35 -6 5 8 46 15 67 18 45 6z m-438 -448
l12 -48 14 48 c7 26 17 47 23 47 5 0 9 -29 9 -65 0 -37 -4 -65 -10 -65 -5 0
-10 12 -11 28 -1 27 -1 27 -8 3 -10 -36 -31 -38 -32 -4 l-2 28 -4 -27 c-8 -52
-23 -28 -23 37 0 77 15 85 32 18z m133 -18 c0 -58 -1 -60 -27 -63 l-28 -3 0
66 0 66 28 -3 c26 -3 27 -5 27 -63z m72 53 c-3 -7 -13 -39 -23 -70 -9 -32 -21
-58 -26 -58 -6 0 -8 6 -5 13 2 6 13 38 23 70 10 31 22 57 27 57 5 0 6 -6 4
-12z m113 -33 c13 -8 14 -85 1 -85 -6 0 -11 17 -13 38 -2 20 -7 37 -13 37 -5
0 -11 -17 -13 -37 -4 -51 -22 -49 -22 2 0 22 -4 40 -10 40 -5 0 -10 -18 -10
-40 0 -22 -4 -40 -10 -40 -5 0 -10 22 -10 49 l0 49 45 -3 c24 -2 49 -6 55 -10z
m76 -7 c5 -8 0 -9 -14 -6 -12 4 -22 2 -22 -4 0 -5 9 -12 20 -15 23 -6 27 -41
5 -49 -8 -4 -23 -3 -32 2 -16 7 -15 8 5 11 24 5 31 23 8 23 -19 0 -29 17 -22
35 6 18 42 20 52 3z m276 -355 c-50 -42 -208 -112 -298 -134 -119 -28 -321
-23 -429 11 -72 22 -222 93 -240 112 -7 7 -6 9 2 4 6 -3 14 -2 17 3 3 5 41 -8
83 -29 121 -60 226 -83 368 -84 93 0 139 5 204 23 92 24 206 73 267 115 28 19
40 22 46 13 4 -7 -3 -21 -20 -34z"/>
<path d="M920 650 c0 -11 5 -20 10 -20 6 0 10 9 10 20 0 11 -4 20 -10 20 -5 0
-10 -9 -10 -20z"/>
<path d="M920 600 c0 -11 5 -20 10 -20 6 0 10 9 10 20 0 11 -4 20 -10 20 -5 0
-10 -9 -10 -20z"/>
<path d="M0 1333 c0 -91 2 -164 4 -162 3 2 19 39 35 81 49 122 39 248 -20 248
-18 0 -19 -8 -19 -167z"/>
</g>
</svg>
